<?xml version="1.0" encoding="utf-8"?>
<!-- Generator: Adobe Illustrator 24.0.1, SVG Export Plug-In . SVG Version: 6.00 Build 0)  -->
<svg version="1.1" id="Layer_1" xmlns="http://www.w3.org/2000/svg" xmlns:xlink="http://www.w3.org/1999/xlink" x="0px" y="0px"
	 viewBox="0 0 100 100" style="enable-background:new 0 0 100 100;" xml:space="preserve">
<style type="text/css">
	.st0{fill:#64BEEC;}
	.st1{fill:#1D3A4A;}
	.st2{fill:none;}
	.st3{font-family:'DrukTextWide-Medium';}
	.st4{font-size:17px;}
</style>
<g>
	<g>
		<path class="st0" d="M73.54,66.67c-9.99-9.66-25.03-12.11-37.66-6.45c-3.48,1.56-6.69,3.8-9.43,6.45
			c0.59-0.24,1.18-0.49,1.77-0.73c0.61,0.05,0.48,0.89,0.51,0.01c0.02-0.65,0-1.3,0-1.95c0-2.27,0-4.55,0-6.82
			c0-4.67,0-9.35,0-14.02c0-0.41,0.08-0.91,0-1.31c0.01,0.06-0.3,0.27,0.05,0.09c0.38-0.2,0.76-0.72,1.07-1.01
			c0.59-0.56,1.18-1.12,1.77-1.67c3.7-3.5,7.4-6.99,11.11-10.49c1.66-1.57,3.32-3.14,4.98-4.7c0.57-0.54,1.14-1.08,1.71-1.62
			c0.21-0.19,0.8-0.57,0.89-0.84c0.08-0.23,0.02,0.07-0.32,0.08c-0.32,0.01-0.41-0.3-0.3-0.07c0.12,0.29,0.65,0.62,0.88,0.83
			c1.35,1.27,2.69,2.54,4.04,3.81c3.81,3.6,7.63,7.2,11.44,10.81c1.38,1.3,2.76,2.61,4.14,3.91c0.3,0.28,0.66,0.78,1.03,0.97
			c0.35,0.18,0.06-0.09,0.05-0.07c-0.25,1.19,0,2.69,0,3.9c0,2.49,0,4.98,0,7.48c0,4.23-0.25,8.54,0,12.76
			c0.05,0.83-0.11,0,0.51-0.05c-1.35,0.11-2.5,1.07-2.5,2.5c0,1.27,1.15,2.61,2.5,2.5c2.57-0.21,4.39-1.95,4.49-4.57
			c0.03-0.63,0-1.28,0-1.91c0-2.91,0-5.83,0-8.74c0-3.25,0-6.51,0-9.76c0-1.65,0.25-3.55-0.12-5.18c-0.42-1.85-2.19-3.13-3.51-4.37
			c-2.15-2.03-4.31-4.07-6.46-6.1c-4.13-3.9-8.25-7.79-12.38-11.69c-0.46-0.43-0.92-0.9-1.45-1.25c-1.86-1.18-4.07-0.66-5.62,0.72
			c-1.36,1.21-2.66,2.51-3.98,3.76c-4.66,4.41-9.33,8.81-13.99,13.22c-1.21,1.14-2.47,2.24-3.63,3.43c-1.6,1.64-1.41,3.63-1.41,5.7
			c0,6.17,0,12.35,0,18.52c0,1.83-0.33,4.22,0.56,5.9c0.7,1.31,2.13,2.2,3.61,2.29c1.66,0.1,2.59-1.22,3.74-2.19
			c1.85-1.56,3.95-2.84,6.13-3.88c8.47-4.04,18.75-3.48,26.82,1.25c1.97,1.16,3.78,2.53,5.42,4.12
			C72.32,72.44,75.86,68.91,73.54,66.67z"/>
	</g>
</g>
<g>
	<g>
		<path class="st1" d="M18,39.95c3.7-3.55,7.39-7.1,11.09-10.65c5.8-5.57,11.6-11.15,17.4-16.72c0.87-0.84,1.74-1.67,2.61-2.51
			c0.14-0.13,1.17-0.91,1.16-1.11c0.02,0.35-0.89-0.38-0.11,0.37c0.65,0.62,1.3,1.25,1.94,1.87c5.52,5.3,11.04,10.61,16.56,15.91
			c4.38,4.21,8.68,8.52,13.14,12.63c0.07,0.07,0.15,0.14,0.22,0.21c2.32,2.23,5.86-1.3,3.54-3.54c-3.81-3.66-7.62-7.32-11.43-10.99
			c-5.86-5.63-11.72-11.26-17.58-16.9c-1.23-1.18-2.4-2.54-3.78-3.55c-2.01-1.47-4.46-1-6.2,0.61c-0.57,0.53-1.12,1.08-1.68,1.62
			c-5.53,5.31-11.06,10.63-16.59,15.94c-4.52,4.34-9.17,8.58-13.57,13.04c-0.08,0.08-0.16,0.15-0.24,0.23
			C12.14,38.65,15.68,42.18,18,39.95L18,39.95z"/>
	</g>
</g>
<g>
	<g>
		<path class="st1" d="M28.73,28.57c0-5.26,0-10.52,0-15.78c0-0.74,0-1.49,0-2.23c0-1.35-1.15-2.5-2.5-2.5c-1.36,0-2.5,1.14-2.5,2.5
			c0,5.26,0,10.52,0,15.78c0,0.74,0,1.49,0,2.23c0,1.35,1.15,2.5,2.5,2.5C27.59,31.07,28.73,29.93,28.73,28.57L28.73,28.57z"/>
	</g>
</g>
<rect x="-3.89" y="72.53" class="st2" width="107.78" height="14.94"/>
<text transform="matrix(1 0 0 1 0.5898 85.3981)" class="st1 st3 st4">BoolBnB</text>
</svg>
